<svg width="12" height="12" viewBox="0 0 12 12" fill="none" xmlns="http://www.w3.org/2000/svg">
<path opacity="0.4" d="M11.5539 2.64278V6.19796H0.631317V2.64278C0.631317 1.31369 1.71428 0.23073 3.04337 0.23073H9.14187C10.471 0.23073 11.5539 1.31369 11.5539 2.64278Z" fill="#C0C0C0"/>
<path d="M0.631317 6.20337V6.31276C0.631317 7.64732 1.71428 8.72482 3.04337 8.72482H5.14366C5.44448 8.72482 5.69061 8.97094 5.69061 9.27177V9.80231C5.69061 10.1031 5.44448 10.3493 5.14366 10.3493H3.82004C3.59579 10.3493 3.40983 10.5352 3.40983 10.7595C3.40983 10.9837 3.59032 11.1697 3.82004 11.1697H8.38707C8.61132 11.1697 8.79729 10.9837 8.79729 10.7595C8.79729 10.5352 8.61132 10.3493 8.38707 10.3493H7.06345C6.76263 10.3493 6.5165 10.1031 6.5165 9.80231V9.27177C6.5165 8.97094 6.76263 8.72482 7.06345 8.72482H9.14733C10.4819 8.72482 11.5594 7.64185 11.5594 6.31276V6.20337H0.631317Z" fill="#C0C0C0"/>
</svg>
