<svg width="18" height="18" viewBox="0 0 18 18" fill="none" xmlns="http://www.w3.org/2000/svg">
<path d="M10.8322 6.006C10.2842 6.00412 9.74124 6.11031 9.23431 6.31851C8.72739 6.5267 8.26649 6.83281 7.87799 7.21932C7.48949 7.60583 7.18102 8.06514 6.97022 8.57099C6.75942 9.07684 6.65044 9.61929 6.6495 10.1673V14.3715C6.6495 14.5422 6.7173 14.7058 6.83798 14.8265C6.95866 14.9472 7.12233 15.015 7.293 15.015H8.7945C8.96517 15.015 9.12884 14.9472 9.24952 14.8265C9.3702 14.7058 9.438 14.5422 9.438 14.3715V10.1673C9.43786 9.97239 9.4788 9.77964 9.55814 9.60162C9.63749 9.42359 9.75346 9.26428 9.89851 9.13408C10.0435 9.00388 10.2144 8.90571 10.3999 8.84597C10.5855 8.78623 10.7815 8.76625 10.9753 8.78735C11.3227 8.83112 11.6421 9.00089 11.8727 9.26448C12.1034 9.52806 12.2292 9.86712 12.2265 10.2173V14.3715C12.2265 14.5422 12.2943 14.7058 12.415 14.8265C12.5357 14.9472 12.6993 15.015 12.87 15.015H14.3715C14.5422 15.015 14.7058 14.9472 14.8265 14.8265C14.9472 14.7058 15.015 14.5422 15.015 14.3715V10.1673C15.0141 9.61929 14.9051 9.07684 14.6943 8.57099C14.4835 8.06514 14.175 7.60583 13.7865 7.21932C13.398 6.83281 12.9371 6.5267 12.4302 6.31851C11.9233 6.11031 11.3803 6.00412 10.8322 6.006Z" fill="#FFFBFC"/>
<path d="M4.719 6.6495H2.7885C2.4331 6.6495 2.145 6.9376 2.145 7.293V14.3715C2.145 14.7269 2.4331 15.015 2.7885 15.015H4.719C5.07439 15.015 5.3625 14.7269 5.3625 14.3715V7.293C5.3625 6.9376 5.07439 6.6495 4.719 6.6495Z" fill="#FFFBFC"/>
<path d="M3.75375 5.3625C4.64224 5.3625 5.3625 4.64224 5.3625 3.75375C5.3625 2.86526 4.64224 2.145 3.75375 2.145C2.86526 2.145 2.145 2.86526 2.145 3.75375C2.145 4.64224 2.86526 5.3625 3.75375 5.3625Z" fill="#FFFBFC"/>
</svg>
