<svg width="4" height="4" viewBox="0 0 4 4" fill="none" xmlns="http://www.w3.org/2000/svg">
<path d="M1.75757 0.267884C1.40092 0.26426 1.05743 0.402386 0.802583 0.651906C0.547734 0.901426 0.402382 1.24192 0.39847 1.59856C0.399844 1.88041 0.490511 2.15457 0.657447 2.38167C0.824384 2.60876 1.059 2.77711 1.3276 2.86252C1.39555 2.87488 1.42026 2.83411 1.42026 2.79827C1.42026 2.76244 1.42026 2.68337 1.42026 2.57217C1.04219 2.65248 0.961877 2.39425 0.961877 2.39425C0.936709 2.31319 0.883202 2.24389 0.811141 2.19904C0.687587 2.11749 0.821025 2.11873 0.821025 2.11873C0.863732 2.12444 0.904592 2.13974 0.940541 2.16349C0.976489 2.18724 1.00659 2.21883 1.0286 2.25587C1.06694 2.32236 1.12985 2.37113 1.2038 2.3917C1.27774 2.41227 1.35681 2.40298 1.42397 2.36583C1.43088 2.29817 1.46152 2.23514 1.51046 2.18792C1.20899 2.15456 0.892687 2.04089 0.892687 1.53061C0.889991 1.3975 0.939173 1.26856 1.02983 1.17107C0.988544 1.05679 0.993419 0.930915 1.04342 0.820172C1.04342 0.820172 1.15833 0.784341 1.41409 0.956081C1.63672 0.896755 1.871 0.896755 2.09363 0.956081C2.3531 0.784341 2.4643 0.820172 2.4643 0.820172C2.5143 0.930915 2.51918 1.05679 2.47789 1.17107C2.57065 1.26678 2.6225 1.39485 2.62245 1.52814C2.62245 2.03965 2.30368 2.15209 2.00467 2.18545C2.03741 2.21723 2.0627 2.25588 2.07873 2.29861C2.09475 2.34133 2.10111 2.38708 2.09734 2.43255V2.79704C2.09734 2.79704 2.12205 2.87488 2.19001 2.86129C2.45784 2.77534 2.69167 2.60696 2.85809 2.38018C3.02451 2.15341 3.11501 1.87985 3.11666 1.59856C3.11275 1.24192 2.9674 0.901426 2.71255 0.651906C2.4577 0.402386 2.11421 0.26426 1.75757 0.267884Z" fill="white"/>
</svg>
